<svg width="171" height="78" viewBox="0 0 171 78" fill="none" xmlns="http://www.w3.org/2000/svg">
<g clip-path="url(#clip0_155_3898)">
<path d="M6.5 29.2107H22.3487C23.2247 26.1694 24.0235 23.3916 24.8525 20.5192H42.0135C45.4001 15.9809 48.7363 11.5135 52.2369 6.82642H11.4238C9.78922 14.2845 8.14125 21.7189 6.5 29.2107Z" fill="#E1AB25"/>
<path d="M33.6897 29.0891V29.1837H19.4722L12.1554 51.2875C11.0008 55.3697 9.85296 59.4214 8.70844 63.463L7.01013 70.8265C17.4517 56.9985 27.8967 43.1705 38.5229 29.1026C36.8783 29.0891 35.2806 29.0857 33.6931 29.0891H33.6897Z" fill="white"/>
<path d="M81.1921 14.2742L80.0577 20.7691H69.8644L69.2401 24.3883H76.5738L75.4729 30.5555H68.1393L66.4175 40.4094H58.2783L62.8597 14.2742H81.1921Z" fill="white"/>
<path d="M92.305 13.0916L87.4988 40.4096H79.3596L84.1625 13.0916H92.305Z" fill="white"/>
<path d="M102.972 19.5898L99.3064 40.4095H91.1672L94.8324 19.5898H102.972Z" fill="white"/>
<path d="M96.2453 17.0047C95.5237 16.3897 95.1646 15.5888 95.1646 14.6054C95.1646 13.7437 95.3961 12.9428 95.8627 12.2062C96.3258 11.4661 96.9803 10.8849 97.8228 10.4523C98.6652 10.0232 99.6016 9.80688 100.629 9.80688C101.874 9.80688 102.857 10.1212 103.579 10.7497C104.301 11.3782 104.66 12.196 104.66 13.2064C104.66 14.0681 104.428 14.8555 103.962 15.5685C103.498 16.2816 102.847 16.856 102.018 17.2852C101.186 17.7178 100.259 17.9306 99.2324 17.9306C97.9604 17.9306 96.9636 17.6231 96.2453 17.0081V17.0047Z" fill="white"/>
<path d="M119.84 30.0724L125.925 40.4096H116.209L112.581 32.1033L111.114 40.4096H102.971L107.778 13.0916H115.917L113.386 27.4163L119.948 19.5899H129.409L119.84 30.0724Z" fill="white"/>
<path d="M139.566 19.5898L135.901 40.4095H127.758L131.427 19.5898H139.566Z" fill="white"/>
<path d="M132.836 17.0047C132.115 16.3897 131.755 15.5888 131.755 14.6054C131.755 13.7437 131.987 12.9428 132.454 12.2062C132.917 11.4661 133.571 10.8849 134.414 10.4523C135.256 10.0232 136.193 9.80688 137.22 9.80688C138.465 9.80688 139.448 10.1212 140.17 10.7497C140.891 11.3782 141.251 12.196 141.251 13.2064C141.251 14.0681 141.019 14.8555 140.552 15.5685C140.089 16.2816 139.438 16.856 138.609 17.2852C137.777 17.7178 136.85 17.9306 135.823 17.9306C134.551 17.9306 133.554 17.6231 132.836 17.0081V17.0047Z" fill="white"/>
<path d="M156.394 19.5898L155.881 22.4318C155.539 21.472 154.928 20.7151 154.048 20.1609C153.169 19.6067 152.055 19.3296 150.712 19.3296C149.098 19.3296 147.571 19.7554 146.127 20.6036C144.684 21.4518 143.452 22.6852 142.425 24.2937C141.398 25.9057 140.69 27.8082 140.297 29.9979C140.126 30.8833 140.042 31.7957 140.042 32.7284C140.042 35.2155 140.677 37.1586 141.949 38.561C143.221 39.9634 144.896 40.6663 146.973 40.6663C148.316 40.6663 149.527 40.3892 150.605 39.835C151.679 39.2808 152.562 38.5238 153.246 37.5641L152.733 40.4061H160.835L164.5 19.5864H156.398L156.394 19.5898ZM154.562 30.0013C154.367 31.1097 153.931 31.9714 153.26 32.5865C152.588 33.2015 151.813 33.509 150.93 33.509C150.172 33.509 149.574 33.2826 149.135 32.8264C148.695 32.3702 148.473 31.7248 148.473 30.8867C148.473 30.5184 148.497 30.221 148.547 30.0013C148.742 28.8929 149.178 28.0312 149.85 27.4162C150.521 26.8012 151.3 26.4936 152.179 26.4936C152.937 26.4936 153.535 26.7201 153.975 27.1763C154.414 27.6325 154.636 28.2779 154.636 29.116C154.636 29.4843 154.612 29.7817 154.562 30.0013Z" fill="white"/>
<path d="M69.737 49.6689C69.2234 48.7801 68.4783 48.0874 67.5084 47.5906C66.535 47.0939 65.3704 46.8472 64.0077 46.8472H57.8622L55.2577 61.6991H61.4032C62.9437 61.6991 64.35 61.3746 65.6221 60.7225C66.8941 60.0736 67.9413 59.1815 68.767 58.0461C69.5926 56.914 70.133 55.64 70.3814 54.2275C70.4653 53.6969 70.5056 53.2002 70.5056 52.7372C70.5056 51.5748 70.2471 50.5508 69.7336 49.6621L69.737 49.6689ZM65.6959 54.2309C65.5147 55.2953 65.0683 56.1131 64.3534 56.6842C63.6385 57.2587 62.7591 57.5459 61.7187 57.5459H60.6144L61.7824 50.9158H62.8867C63.7895 50.9158 64.4944 51.1321 65.0012 51.5646C65.508 51.9972 65.7631 52.6291 65.7631 53.4536C65.7631 53.6902 65.7429 53.9504 65.6993 54.2309H65.6959Z" fill="#E1AB25"/>
<path d="M81.9272 50.9699C81.0109 50.1386 79.7724 49.7229 78.2184 49.7229C77.0504 49.7229 75.9697 49.9662 74.9795 50.4562C73.9861 50.9462 73.157 51.6491 72.4891 52.5649C71.8212 53.4807 71.3782 54.5553 71.1567 55.7853C71.0727 56.2483 71.0325 56.6943 71.0325 57.1269C71.0325 58.6104 71.4856 59.7661 72.3985 60.5974C73.3081 61.4287 74.5399 61.8443 76.0972 61.8443C77.0705 61.8443 77.9969 61.6517 78.8796 61.2665C79.7623 60.8813 80.5276 60.3575 81.1821 59.6917C81.8365 59.026 82.3131 58.2758 82.6219 57.4378H77.725C77.433 57.9007 77.0303 58.1305 76.5167 58.1305C75.8488 58.1305 75.5165 57.7385 75.5165 56.9545C75.5165 56.7991 75.5233 56.6808 75.5367 56.5963H82.9542C83.0113 56.4443 83.0851 56.1334 83.1824 55.6738C83.2664 55.2108 83.3066 54.7783 83.3066 54.3728C83.3066 52.9332 82.8468 51.7944 81.9305 50.9631L81.9272 50.9699ZM78.6547 54.6938H75.8824C76.1744 53.8118 76.7383 53.3725 77.5706 53.3725C77.8895 53.3725 78.1546 53.457 78.3627 53.626C78.5708 53.7949 78.6749 54.045 78.6749 54.3795C78.6749 54.5181 78.6682 54.6228 78.6547 54.6938Z" fill="#E1AB25"/>
<path d="M90.929 46.1746L88.2002 61.6989H83.5752L86.3039 46.1746H90.929Z" fill="#E1AB25"/>
<path d="M96.9938 49.8682L94.9095 61.699H90.2844L92.3654 49.8682H96.9938Z" fill="#E1AB25"/>
<path d="M93.171 48.3982C92.7615 48.0501 92.5568 47.5939 92.5568 47.0329C92.5568 46.5429 92.6877 46.0901 92.9528 45.6677C93.218 45.2453 93.5872 44.9175 94.0671 44.6708C94.5471 44.4275 95.0774 44.3025 95.6614 44.3025C96.3696 44.3025 96.9301 44.4816 97.3396 44.8364C97.749 45.1946 97.9538 45.6576 97.9538 46.2321C97.9538 46.722 97.8229 47.1681 97.5577 47.5736C97.2926 47.9791 96.9267 48.3035 96.4535 48.5502C95.9802 48.7935 95.4533 48.9186 94.8693 48.9186C94.1477 48.9186 93.5805 48.7428 93.171 48.3948V48.3982Z" fill="#E1AB25"/>
<path d="M103.723 57.2721L106.912 49.8682H111.829L105.828 61.699H100.055L98.2222 49.8682H103.139L103.723 57.2721Z" fill="#E1AB25"/>
<path d="M122.163 50.9699C121.247 50.1386 120.008 49.7229 118.454 49.7229C117.286 49.7229 116.205 49.9662 115.215 50.4562C114.222 50.9462 113.393 51.6491 112.725 52.5649C112.057 53.4807 111.614 54.5553 111.392 55.7853C111.309 56.2483 111.268 56.6943 111.268 57.1269C111.268 58.6104 111.725 59.7661 112.634 60.5974C113.544 61.4287 114.776 61.8443 116.333 61.8443C117.306 61.8443 118.233 61.6517 119.115 61.2665C119.998 60.8813 120.763 60.3575 121.418 59.6917C122.072 59.026 122.549 58.2758 122.854 57.4378H117.958C117.666 57.9007 117.263 58.1305 116.749 58.1305C116.081 58.1305 115.749 57.7385 115.749 56.9545C115.749 56.7991 115.756 56.6808 115.769 56.5963H123.187C123.244 56.4443 123.318 56.1334 123.415 55.6738C123.499 55.2108 123.539 54.7783 123.539 54.3728C123.539 52.9332 123.079 51.7944 122.163 50.9631V50.9699ZM118.891 54.6938H116.118C116.41 53.8118 116.971 53.3725 117.806 53.3725C118.125 53.3725 118.39 53.457 118.599 53.626C118.807 53.7949 118.911 54.045 118.911 54.3795C118.911 54.5181 118.904 54.6228 118.891 54.6938Z" fill="#E1AB25"/>
<path d="M132.155 50.4021C132.897 49.9898 133.638 49.7837 134.373 49.7837L133.518 54.7546H132.205C131.329 54.7546 130.661 54.91 130.195 55.2176C129.728 55.5251 129.426 56.0691 129.289 56.8531L128.433 61.699H123.808L125.892 49.8682H130.517L130.141 52.0512C130.738 51.3652 131.41 50.8177 132.151 50.4055L132.155 50.4021Z" fill="#E1AB25"/>
<path d="M139.522 49.8682L140.667 55.8664L143.791 49.8682H148.896L138.314 67.366H133.249L137.29 61.1144L134.373 49.8682H139.522Z" fill="#E1AB25"/>
</g>
<defs>
<clipPath id="clip0_155_3898">
<rect width="158" height="64" fill="white" transform="translate(6.5 6.823)"/>
</clipPath>
</defs>
</svg>
