<svg width="159" height="65" viewBox="0 0 159 65" fill="none" xmlns="http://www.w3.org/2000/svg">
<g clip-path="url(#clip0_248_1079)">
<g filter="url(#filter0_d_248_1079)">
<path d="M0 22.6287H15.949C16.8305 19.5873 17.6344 16.8096 18.4687 13.9372H35.7383C39.1463 9.39883 42.5036 4.93143 46.0264 0.244385H4.95492C3.31004 7.70243 1.65164 15.1368 0 22.6287Z" fill="#E1AB25"/>
</g>
<g filter="url(#filter1_d_248_1079)">
<path d="M27.3619 22.5071V22.6017H13.0544L5.69127 44.7055C4.52938 48.7877 3.37425 52.8394 2.22249 56.881L0.513428 64.2444C11.0211 50.4165 21.5322 36.5885 32.2256 22.5206C30.5706 22.5071 28.9629 22.5037 27.3653 22.5071H27.3619Z" fill="#332A16"/>
</g>
<g filter="url(#filter2_d_248_1079)">
<path d="M75.1649 7.69214L74.0233 14.1871H63.7655L63.1373 17.8063H70.5173L69.4095 23.9735H62.0294L60.2967 33.8274H52.1061L56.7165 7.69214H75.1649Z" fill="#332A16"/>
</g>
<g filter="url(#filter3_d_248_1079)">
<path d="M86.348 6.50952L81.5113 33.8275H73.3207L78.154 6.50952H86.348Z" fill="#332A16"/>
</g>
<g filter="url(#filter4_d_248_1079)">
<path d="M97.082 13.0078L93.3937 33.8275H85.203L88.8913 13.0078H97.082Z" fill="#332A16"/>
</g>
<g filter="url(#filter5_d_248_1079)">
<path d="M90.3134 10.4227C89.5872 9.80767 89.2258 9.00679 89.2258 8.02342C89.2258 7.1617 89.4589 6.36082 89.9284 5.62414C90.3945 4.88408 91.0531 4.30284 91.9009 3.87029C92.7486 3.44113 93.691 3.22485 94.7245 3.22485C95.9776 3.22485 96.9673 3.53913 97.6934 4.16767C98.4196 4.79621 98.781 5.614 98.781 6.6244C98.781 7.48611 98.548 8.27348 98.0785 8.98651C97.6124 9.69953 96.9571 10.274 96.1229 10.7032C95.2852 11.1357 94.353 11.3486 93.3195 11.3486C92.0394 11.3486 91.0362 11.0411 90.3134 10.4261V10.4227Z" fill="#332A16"/>
</g>
<g filter="url(#filter6_d_248_1079)">
<path d="M114.058 23.4904L120.181 33.8275H110.403L106.752 25.5213L105.276 33.8275H97.082L101.919 6.50952H110.109L107.563 20.8342L114.166 13.0079H123.687L114.058 23.4904Z" fill="#332A16"/>
</g>
<g filter="url(#filter7_d_248_1079)">
<path d="M133.908 13.0078L130.22 33.8275H122.026L125.717 13.0078H133.908Z" fill="#332A16"/>
</g>
<g filter="url(#filter8_d_248_1079)">
<path d="M127.136 10.4227C126.41 9.80767 126.048 9.00679 126.048 8.02342C126.048 7.1617 126.281 6.36082 126.751 5.62414C127.217 4.88408 127.875 4.30284 128.723 3.87029C129.571 3.44113 130.513 3.22485 131.547 3.22485C132.8 3.22485 133.79 3.53913 134.516 4.16767C135.242 4.79621 135.603 5.614 135.603 6.6244C135.603 7.48611 135.37 8.27348 134.901 8.98651C134.435 9.69953 133.78 10.274 132.945 10.7032C132.108 11.1357 131.175 11.3486 130.142 11.3486C128.862 11.3486 127.859 11.0411 127.136 10.4261V10.4227Z" fill="#332A16"/>
</g>
<g filter="url(#filter9_d_248_1079)">
<path d="M150.843 13.0078L150.326 15.8497C149.982 14.89 149.367 14.1331 148.482 13.5789C147.597 13.0247 146.476 12.7476 145.125 12.7476C143.5 12.7476 141.963 13.1733 140.511 14.0215C139.059 14.8697 137.819 16.1032 136.786 17.7117C135.752 19.3236 135.039 21.2261 134.644 23.4159C134.472 24.3013 134.387 25.2137 134.387 26.1464C134.387 28.6335 135.026 30.5766 136.306 31.979C137.586 33.3814 139.271 34.0843 141.362 34.0843C142.713 34.0843 143.933 33.8072 145.017 33.253C146.098 32.6988 146.986 31.9418 147.675 30.9821L147.158 33.8241H155.312L159 13.0044H150.846L150.843 13.0078ZM148.999 23.4193C148.803 24.5277 148.364 25.3894 147.688 26.0044C147.013 26.6195 146.233 26.927 145.344 26.927C144.581 26.927 143.98 26.7006 143.537 26.2444C143.095 25.7882 142.872 25.1427 142.872 24.3047C142.872 23.9363 142.896 23.6389 142.946 23.4193C143.142 22.3109 143.581 21.4492 144.257 20.8342C144.932 20.2191 145.716 19.9116 146.601 19.9116C147.364 19.9116 147.965 20.138 148.408 20.5942C148.85 21.0504 149.073 21.6959 149.073 22.5339C149.073 22.9023 149.05 23.1996 148.999 23.4193Z" fill="#332A16"/>
</g>
<g filter="url(#filter10_d_248_1079)">
<path d="M63.6372 43.0868C63.1204 42.1981 62.3706 41.5053 61.3945 41.0086C60.415 40.5118 59.243 40.2651 57.8717 40.2651H51.6873L49.0663 55.117H55.2506C56.801 55.117 58.2162 54.7926 59.4963 54.1404C60.7764 53.4916 61.8302 52.5995 62.6611 51.464C63.492 50.332 64.0358 49.058 64.2857 47.6455C64.3701 47.1149 64.4107 46.6182 64.4107 46.1552C64.4107 44.9927 64.1506 43.9688 63.6338 43.0801L63.6372 43.0868ZM59.5706 47.6488C59.3882 48.7133 58.939 49.5311 58.2195 50.1022C57.5001 50.6767 56.6152 50.9639 55.5681 50.9639H54.4569L55.6323 44.3338H56.7435C57.6521 44.3338 58.3614 44.55 58.8714 44.9826C59.3814 45.4151 59.6381 46.0471 59.6381 46.8716C59.6381 47.1082 59.6179 47.3684 59.574 47.6488H59.5706Z" fill="#E1AB25"/>
</g>
<g filter="url(#filter11_d_248_1079)">
<path d="M75.9046 44.3878C74.9825 43.5565 73.7362 43.1409 72.1723 43.1409C70.9969 43.1409 69.9093 43.3842 68.913 43.8742C67.9132 44.3642 67.0789 45.0671 66.4068 45.9828C65.7347 46.8986 65.2888 47.9732 65.0659 49.2033C64.9814 49.6662 64.9409 50.1123 64.9409 50.5449C64.9409 52.0284 65.3969 53.1841 66.3156 54.0154C67.2309 54.8467 68.4705 55.2623 70.0377 55.2623C71.0172 55.2623 71.9494 55.0697 72.8377 54.6845C73.726 54.2992 74.4961 53.7754 75.1547 53.1097C75.8134 52.444 76.293 51.6938 76.6037 50.8557H71.6758C71.382 51.3187 70.9767 51.5485 70.4599 51.5485C69.7878 51.5485 69.4534 51.1565 69.4534 50.3725C69.4534 50.2171 69.4601 50.0988 69.4736 50.0143H76.9381C76.9955 49.8622 77.0698 49.5513 77.1678 49.0918C77.2522 48.6288 77.2928 48.1963 77.2928 47.7907C77.2928 46.3512 76.83 45.2124 75.9079 44.3811L75.9046 44.3878ZM72.6114 48.1118H69.8215C70.1154 47.2298 70.6828 46.7905 71.5205 46.7905C71.8413 46.7905 72.1082 46.875 72.3176 47.0439C72.527 47.2129 72.6317 47.463 72.6317 47.7975C72.6317 47.9361 72.6249 48.0408 72.6114 48.1118Z" fill="#E1AB25"/>
</g>
<g filter="url(#filter12_d_248_1079)">
<path d="M84.9633 39.5925L82.2173 55.1169H77.563L80.309 39.5925H84.9633Z" fill="#E1AB25"/>
</g>
<g filter="url(#filter13_d_248_1079)">
<path d="M91.0665 43.2861L88.969 55.117H84.3147L86.4088 43.2861H91.0665Z" fill="#E1AB25"/>
</g>
<g filter="url(#filter14_d_248_1079)">
<path d="M87.2194 41.8161C86.8074 41.4681 86.6013 41.0119 86.6013 40.4509C86.6013 39.9609 86.733 39.5081 86.9999 39.0857C87.2667 38.6633 87.6382 38.3355 88.1212 38.0888C88.6042 37.8455 89.1379 37.7205 89.7256 37.7205C90.4383 37.7205 91.0023 37.8996 91.4144 38.2544C91.8264 38.6126 92.0325 39.0755 92.0325 39.65C92.0325 40.14 91.9008 40.5861 91.6339 40.9916C91.3671 41.3971 90.9989 41.7215 90.5227 41.9682C90.0465 42.2115 89.5162 42.3365 88.9285 42.3365C88.2023 42.3365 87.6315 42.1608 87.2194 41.8128V41.8161Z" fill="#E1AB25"/>
</g>
<g filter="url(#filter15_d_248_1079)">
<path d="M97.8386 50.6901L101.047 43.2861H105.995L99.9564 55.117H94.1469L92.3027 43.2861H97.2509L97.8386 50.6901Z" fill="#E1AB25"/>
</g>
<g filter="url(#filter16_d_248_1079)">
<path d="M116.395 44.3878C115.473 43.5565 114.227 43.1409 112.663 43.1409C111.487 43.1409 110.4 43.3842 109.403 43.8742C108.404 44.3642 107.569 45.0671 106.897 45.9828C106.225 46.8986 105.779 47.9732 105.556 49.2033C105.472 49.6662 105.431 50.1123 105.431 50.5449C105.431 52.0284 105.891 53.1841 106.806 54.0154C107.721 54.8467 108.961 55.2623 110.528 55.2623C111.508 55.2623 112.44 55.0697 113.328 54.6845C114.217 54.2992 114.987 53.7754 115.645 53.1097C116.304 52.444 116.783 51.6938 117.091 50.8557H112.163C111.869 51.3187 111.464 51.5485 110.947 51.5485C110.275 51.5485 109.94 51.1565 109.94 50.3725C109.94 50.2171 109.947 50.0988 109.961 50.0143H117.425C117.483 49.8622 117.557 49.5513 117.655 49.0918C117.739 48.6288 117.78 48.1963 117.78 47.7907C117.78 46.3512 117.317 45.2124 116.395 44.3811V44.3878ZM113.102 48.1118H110.312C110.606 47.2298 111.17 46.7905 112.011 46.7905C112.332 46.7905 112.599 46.875 112.808 47.0439C113.017 47.2129 113.122 47.463 113.122 47.7975C113.122 47.9361 113.115 48.0408 113.102 48.1118Z" fill="#E1AB25"/>
</g>
<g filter="url(#filter17_d_248_1079)">
<path d="M126.45 43.8201C127.197 43.4078 127.943 43.2017 128.683 43.2017L127.822 48.1726H126.501C125.619 48.1726 124.947 48.328 124.478 48.6355C124.008 48.943 123.704 49.4871 123.566 50.2711L122.704 55.117H118.05L120.148 43.2861H124.802L124.424 45.4692C125.025 44.7832 125.7 44.2357 126.447 43.8234L126.45 43.8201Z" fill="#E1AB25"/>
</g>
<g filter="url(#filter18_d_248_1079)">
<path d="M133.864 43.2861L135.016 49.2843L138.16 43.2861H143.298L132.648 60.784H127.551L131.618 54.5323L128.683 43.2861H133.864Z" fill="#E1AB25"/>
</g>
</g>
<defs>
<filter id="filter0_d_248_1079" x="-2" y="-1.75562" width="54.0264" height="30.3843" filterUnits="userSpaceOnUse" color-interpolation-filters="sRGB">
<feFlood flood-opacity="0" result="BackgroundImageFix"/>
<feColorMatrix in="SourceAlpha" type="matrix" values="0 0 0 0 0 0 0 0 0 0 0 0 0 0 0 0 0 0 127 0" result="hardAlpha"/>
<feOffset dx="2" dy="2"/>
<feGaussianBlur stdDeviation="2"/>
<feComposite in2="hardAlpha" operator="out"/>
<feColorMatrix type="matrix" values="0 0 0 0 0 0 0 0 0 0 0 0 0 0 0 0 0 0 0.25 0"/>
<feBlend mode="normal" in2="BackgroundImageFix" result="effect1_dropShadow_248_1079"/>
<feBlend mode="normal" in="SourceGraphic" in2="effect1_dropShadow_248_1079" result="shape"/>
</filter>
<filter id="filter1_d_248_1079" x="-1.48657" y="20.5059" width="39.7122" height="49.7385" filterUnits="userSpaceOnUse" color-interpolation-filters="sRGB">
<feFlood flood-opacity="0" result="BackgroundImageFix"/>
<feColorMatrix in="SourceAlpha" type="matrix" values="0 0 0 0 0 0 0 0 0 0 0 0 0 0 0 0 0 0 127 0" result="hardAlpha"/>
<feOffset dx="2" dy="2"/>
<feGaussianBlur stdDeviation="2"/>
<feComposite in2="hardAlpha" operator="out"/>
<feColorMatrix type="matrix" values="0 0 0 0 0 0 0 0 0 0 0 0 0 0 0 0 0 0 0.25 0"/>
<feBlend mode="normal" in2="BackgroundImageFix" result="effect1_dropShadow_248_1079"/>
<feBlend mode="normal" in="SourceGraphic" in2="effect1_dropShadow_248_1079" result="shape"/>
</filter>
<filter id="filter2_d_248_1079" x="50.1061" y="5.69214" width="31.0588" height="34.1353" filterUnits="userSpaceOnUse" color-interpolation-filters="sRGB">
<feFlood flood-opacity="0" result="BackgroundImageFix"/>
<feColorMatrix in="SourceAlpha" type="matrix" values="0 0 0 0 0 0 0 0 0 0 0 0 0 0 0 0 0 0 127 0" result="hardAlpha"/>
<feOffset dx="2" dy="2"/>
<feGaussianBlur stdDeviation="2"/>
<feComposite in2="hardAlpha" operator="out"/>
<feColorMatrix type="matrix" values="0 0 0 0 0 0 0 0 0 0 0 0 0 0 0 0 0 0 0.25 0"/>
<feBlend mode="normal" in2="BackgroundImageFix" result="effect1_dropShadow_248_1079"/>
<feBlend mode="normal" in="SourceGraphic" in2="effect1_dropShadow_248_1079" result="shape"/>
</filter>
<filter id="filter3_d_248_1079" x="71.3207" y="4.50952" width="21.0273" height="35.3181" filterUnits="userSpaceOnUse" color-interpolation-filters="sRGB">
<feFlood flood-opacity="0" result="BackgroundImageFix"/>
<feColorMatrix in="SourceAlpha" type="matrix" values="0 0 0 0 0 0 0 0 0 0 0 0 0 0 0 0 0 0 127 0" result="hardAlpha"/>
<feOffset dx="2" dy="2"/>
<feGaussianBlur stdDeviation="2"/>
<feComposite in2="hardAlpha" operator="out"/>
<feColorMatrix type="matrix" values="0 0 0 0 0 0 0 0 0 0 0 0 0 0 0 0 0 0 0.25 0"/>
<feBlend mode="normal" in2="BackgroundImageFix" result="effect1_dropShadow_248_1079"/>
<feBlend mode="normal" in="SourceGraphic" in2="effect1_dropShadow_248_1079" result="shape"/>
</filter>
<filter id="filter4_d_248_1079" x="83.203" y="11.0078" width="19.879" height="28.8196" filterUnits="userSpaceOnUse" color-interpolation-filters="sRGB">
<feFlood flood-opacity="0" result="BackgroundImageFix"/>
<feColorMatrix in="SourceAlpha" type="matrix" values="0 0 0 0 0 0 0 0 0 0 0 0 0 0 0 0 0 0 127 0" result="hardAlpha"/>
<feOffset dx="2" dy="2"/>
<feGaussianBlur stdDeviation="2"/>
<feComposite in2="hardAlpha" operator="out"/>
<feColorMatrix type="matrix" values="0 0 0 0 0 0 0 0 0 0 0 0 0 0 0 0 0 0 0.25 0"/>
<feBlend mode="normal" in2="BackgroundImageFix" result="effect1_dropShadow_248_1079"/>
<feBlend mode="normal" in="SourceGraphic" in2="effect1_dropShadow_248_1079" result="shape"/>
</filter>
<filter id="filter5_d_248_1079" x="87.2258" y="1.22485" width="17.5552" height="16.1238" filterUnits="userSpaceOnUse" color-interpolation-filters="sRGB">
<feFlood flood-opacity="0" result="BackgroundImageFix"/>
<feColorMatrix in="SourceAlpha" type="matrix" values="0 0 0 0 0 0 0 0 0 0 0 0 0 0 0 0 0 0 127 0" result="hardAlpha"/>
<feOffset dx="2" dy="2"/>
<feGaussianBlur stdDeviation="2"/>
<feComposite in2="hardAlpha" operator="out"/>
<feColorMatrix type="matrix" values="0 0 0 0 0 0 0 0 0 0 0 0 0 0 0 0 0 0 0.25 0"/>
<feBlend mode="normal" in2="BackgroundImageFix" result="effect1_dropShadow_248_1079"/>
<feBlend mode="normal" in="SourceGraphic" in2="effect1_dropShadow_248_1079" result="shape"/>
</filter>
<filter id="filter6_d_248_1079" x="95.082" y="4.50952" width="34.6052" height="35.3181" filterUnits="userSpaceOnUse" color-interpolation-filters="sRGB">
<feFlood flood-opacity="0" result="BackgroundImageFix"/>
<feColorMatrix in="SourceAlpha" type="matrix" values="0 0 0 0 0 0 0 0 0 0 0 0 0 0 0 0 0 0 127 0" result="hardAlpha"/>
<feOffset dx="2" dy="2"/>
<feGaussianBlur stdDeviation="2"/>
<feComposite in2="hardAlpha" operator="out"/>
<feColorMatrix type="matrix" values="0 0 0 0 0 0 0 0 0 0 0 0 0 0 0 0 0 0 0.25 0"/>
<feBlend mode="normal" in2="BackgroundImageFix" result="effect1_dropShadow_248_1079"/>
<feBlend mode="normal" in="SourceGraphic" in2="effect1_dropShadow_248_1079" result="shape"/>
</filter>
<filter id="filter7_d_248_1079" x="120.026" y="11.0078" width="19.8823" height="28.8196" filterUnits="userSpaceOnUse" color-interpolation-filters="sRGB">
<feFlood flood-opacity="0" result="BackgroundImageFix"/>
<feColorMatrix in="SourceAlpha" type="matrix" values="0 0 0 0 0 0 0 0 0 0 0 0 0 0 0 0 0 0 127 0" result="hardAlpha"/>
<feOffset dx="2" dy="2"/>
<feGaussianBlur stdDeviation="2"/>
<feComposite in2="hardAlpha" operator="out"/>
<feColorMatrix type="matrix" values="0 0 0 0 0 0 0 0 0 0 0 0 0 0 0 0 0 0 0.25 0"/>
<feBlend mode="normal" in2="BackgroundImageFix" result="effect1_dropShadow_248_1079"/>
<feBlend mode="normal" in="SourceGraphic" in2="effect1_dropShadow_248_1079" result="shape"/>
</filter>
<filter id="filter8_d_248_1079" x="124.048" y="1.22485" width="17.5552" height="16.1238" filterUnits="userSpaceOnUse" color-interpolation-filters="sRGB">
<feFlood flood-opacity="0" result="BackgroundImageFix"/>
<feColorMatrix in="SourceAlpha" type="matrix" values="0 0 0 0 0 0 0 0 0 0 0 0 0 0 0 0 0 0 127 0" result="hardAlpha"/>
<feOffset dx="2" dy="2"/>
<feGaussianBlur stdDeviation="2"/>
<feComposite in2="hardAlpha" operator="out"/>
<feColorMatrix type="matrix" values="0 0 0 0 0 0 0 0 0 0 0 0 0 0 0 0 0 0 0.25 0"/>
<feBlend mode="normal" in2="BackgroundImageFix" result="effect1_dropShadow_248_1079"/>
<feBlend mode="normal" in="SourceGraphic" in2="effect1_dropShadow_248_1079" result="shape"/>
</filter>
<filter id="filter9_d_248_1079" x="132.387" y="10.7476" width="32.6124" height="29.3367" filterUnits="userSpaceOnUse" color-interpolation-filters="sRGB">
<feFlood flood-opacity="0" result="BackgroundImageFix"/>
<feColorMatrix in="SourceAlpha" type="matrix" values="0 0 0 0 0 0 0 0 0 0 0 0 0 0 0 0 0 0 127 0" result="hardAlpha"/>
<feOffset dx="2" dy="2"/>
<feGaussianBlur stdDeviation="2"/>
<feComposite in2="hardAlpha" operator="out"/>
<feColorMatrix type="matrix" values="0 0 0 0 0 0 0 0 0 0 0 0 0 0 0 0 0 0 0.25 0"/>
<feBlend mode="normal" in2="BackgroundImageFix" result="effect1_dropShadow_248_1079"/>
<feBlend mode="normal" in="SourceGraphic" in2="effect1_dropShadow_248_1079" result="shape"/>
</filter>
<filter id="filter10_d_248_1079" x="47.0663" y="38.2651" width="23.3444" height="22.8518" filterUnits="userSpaceOnUse" color-interpolation-filters="sRGB">
<feFlood flood-opacity="0" result="BackgroundImageFix"/>
<feColorMatrix in="SourceAlpha" type="matrix" values="0 0 0 0 0 0 0 0 0 0 0 0 0 0 0 0 0 0 127 0" result="hardAlpha"/>
<feOffset dx="2" dy="2"/>
<feGaussianBlur stdDeviation="2"/>
<feComposite in2="hardAlpha" operator="out"/>
<feColorMatrix type="matrix" values="0 0 0 0 0 0 0 0 0 0 0 0 0 0 0 0 0 0 0.25 0"/>
<feBlend mode="normal" in2="BackgroundImageFix" result="effect1_dropShadow_248_1079"/>
<feBlend mode="normal" in="SourceGraphic" in2="effect1_dropShadow_248_1079" result="shape"/>
</filter>
<filter id="filter11_d_248_1079" x="62.9409" y="41.1409" width="20.3518" height="20.1213" filterUnits="userSpaceOnUse" color-interpolation-filters="sRGB">
<feFlood flood-opacity="0" result="BackgroundImageFix"/>
<feColorMatrix in="SourceAlpha" type="matrix" values="0 0 0 0 0 0 0 0 0 0 0 0 0 0 0 0 0 0 127 0" result="hardAlpha"/>
<feOffset dx="2" dy="2"/>
<feGaussianBlur stdDeviation="2"/>
<feComposite in2="hardAlpha" operator="out"/>
<feColorMatrix type="matrix" values="0 0 0 0 0 0 0 0 0 0 0 0 0 0 0 0 0 0 0.25 0"/>
<feBlend mode="normal" in2="BackgroundImageFix" result="effect1_dropShadow_248_1079"/>
<feBlend mode="normal" in="SourceGraphic" in2="effect1_dropShadow_248_1079" result="shape"/>
</filter>
<filter id="filter12_d_248_1079" x="75.563" y="37.5925" width="15.4003" height="23.5244" filterUnits="userSpaceOnUse" color-interpolation-filters="sRGB">
<feFlood flood-opacity="0" result="BackgroundImageFix"/>
<feColorMatrix in="SourceAlpha" type="matrix" values="0 0 0 0 0 0 0 0 0 0 0 0 0 0 0 0 0 0 127 0" result="hardAlpha"/>
<feOffset dx="2" dy="2"/>
<feGaussianBlur stdDeviation="2"/>
<feComposite in2="hardAlpha" operator="out"/>
<feColorMatrix type="matrix" values="0 0 0 0 0 0 0 0 0 0 0 0 0 0 0 0 0 0 0.25 0"/>
<feBlend mode="normal" in2="BackgroundImageFix" result="effect1_dropShadow_248_1079"/>
<feBlend mode="normal" in="SourceGraphic" in2="effect1_dropShadow_248_1079" result="shape"/>
</filter>
<filter id="filter13_d_248_1079" x="82.3147" y="41.2861" width="14.7518" height="19.8308" filterUnits="userSpaceOnUse" color-interpolation-filters="sRGB">
<feFlood flood-opacity="0" result="BackgroundImageFix"/>
<feColorMatrix in="SourceAlpha" type="matrix" values="0 0 0 0 0 0 0 0 0 0 0 0 0 0 0 0 0 0 127 0" result="hardAlpha"/>
<feOffset dx="2" dy="2"/>
<feGaussianBlur stdDeviation="2"/>
<feComposite in2="hardAlpha" operator="out"/>
<feColorMatrix type="matrix" values="0 0 0 0 0 0 0 0 0 0 0 0 0 0 0 0 0 0 0.25 0"/>
<feBlend mode="normal" in2="BackgroundImageFix" result="effect1_dropShadow_248_1079"/>
<feBlend mode="normal" in="SourceGraphic" in2="effect1_dropShadow_248_1079" result="shape"/>
</filter>
<filter id="filter14_d_248_1079" x="84.6013" y="35.7205" width="13.4312" height="12.616" filterUnits="userSpaceOnUse" color-interpolation-filters="sRGB">
<feFlood flood-opacity="0" result="BackgroundImageFix"/>
<feColorMatrix in="SourceAlpha" type="matrix" values="0 0 0 0 0 0 0 0 0 0 0 0 0 0 0 0 0 0 127 0" result="hardAlpha"/>
<feOffset dx="2" dy="2"/>
<feGaussianBlur stdDeviation="2"/>
<feComposite in2="hardAlpha" operator="out"/>
<feColorMatrix type="matrix" values="0 0 0 0 0 0 0 0 0 0 0 0 0 0 0 0 0 0 0.25 0"/>
<feBlend mode="normal" in2="BackgroundImageFix" result="effect1_dropShadow_248_1079"/>
<feBlend mode="normal" in="SourceGraphic" in2="effect1_dropShadow_248_1079" result="shape"/>
</filter>
<filter id="filter15_d_248_1079" x="90.3027" y="41.2861" width="21.6927" height="19.8308" filterUnits="userSpaceOnUse" color-interpolation-filters="sRGB">
<feFlood flood-opacity="0" result="BackgroundImageFix"/>
<feColorMatrix in="SourceAlpha" type="matrix" values="0 0 0 0 0 0 0 0 0 0 0 0 0 0 0 0 0 0 127 0" result="hardAlpha"/>
<feOffset dx="2" dy="2"/>
<feGaussianBlur stdDeviation="2"/>
<feComposite in2="hardAlpha" operator="out"/>
<feColorMatrix type="matrix" values="0 0 0 0 0 0 0 0 0 0 0 0 0 0 0 0 0 0 0.25 0"/>
<feBlend mode="normal" in2="BackgroundImageFix" result="effect1_dropShadow_248_1079"/>
<feBlend mode="normal" in="SourceGraphic" in2="effect1_dropShadow_248_1079" result="shape"/>
</filter>
<filter id="filter16_d_248_1079" x="103.431" y="41.1409" width="20.3485" height="20.1213" filterUnits="userSpaceOnUse" color-interpolation-filters="sRGB">
<feFlood flood-opacity="0" result="BackgroundImageFix"/>
<feColorMatrix in="SourceAlpha" type="matrix" values="0 0 0 0 0 0 0 0 0 0 0 0 0 0 0 0 0 0 127 0" result="hardAlpha"/>
<feOffset dx="2" dy="2"/>
<feGaussianBlur stdDeviation="2"/>
<feComposite in2="hardAlpha" operator="out"/>
<feColorMatrix type="matrix" values="0 0 0 0 0 0 0 0 0 0 0 0 0 0 0 0 0 0 0.25 0"/>
<feBlend mode="normal" in2="BackgroundImageFix" result="effect1_dropShadow_248_1079"/>
<feBlend mode="normal" in="SourceGraphic" in2="effect1_dropShadow_248_1079" result="shape"/>
</filter>
<filter id="filter17_d_248_1079" x="116.05" y="41.2017" width="18.6327" height="19.9153" filterUnits="userSpaceOnUse" color-interpolation-filters="sRGB">
<feFlood flood-opacity="0" result="BackgroundImageFix"/>
<feColorMatrix in="SourceAlpha" type="matrix" values="0 0 0 0 0 0 0 0 0 0 0 0 0 0 0 0 0 0 127 0" result="hardAlpha"/>
<feOffset dx="2" dy="2"/>
<feGaussianBlur stdDeviation="2"/>
<feComposite in2="hardAlpha" operator="out"/>
<feColorMatrix type="matrix" values="0 0 0 0 0 0 0 0 0 0 0 0 0 0 0 0 0 0 0.25 0"/>
<feBlend mode="normal" in2="BackgroundImageFix" result="effect1_dropShadow_248_1079"/>
<feBlend mode="normal" in="SourceGraphic" in2="effect1_dropShadow_248_1079" result="shape"/>
</filter>
<filter id="filter18_d_248_1079" x="125.551" y="41.2861" width="23.7463" height="25.4978" filterUnits="userSpaceOnUse" color-interpolation-filters="sRGB">
<feFlood flood-opacity="0" result="BackgroundImageFix"/>
<feColorMatrix in="SourceAlpha" type="matrix" values="0 0 0 0 0 0 0 0 0 0 0 0 0 0 0 0 0 0 127 0" result="hardAlpha"/>
<feOffset dx="2" dy="2"/>
<feGaussianBlur stdDeviation="2"/>
<feComposite in2="hardAlpha" operator="out"/>
<feColorMatrix type="matrix" values="0 0 0 0 0 0 0 0 0 0 0 0 0 0 0 0 0 0 0.25 0"/>
<feBlend mode="normal" in2="BackgroundImageFix" result="effect1_dropShadow_248_1079"/>
<feBlend mode="normal" in="SourceGraphic" in2="effect1_dropShadow_248_1079" result="shape"/>
</filter>
<clipPath id="clip0_248_1079">
<rect width="159" height="64" fill="white" transform="translate(0 0.240967)"/>
</clipPath>
</defs>
</svg>
